<?xml version="1.0" standalone="no"?>
<!DOCTYPE svg PUBLIC "-//W3C//DTD SVG 1.1//EN" "http://www.w3.org/Graphics/SVG/1.1/DTD/svg11.dtd" >
<svg xmlns="http://www.w3.org/2000/svg" xmlns:xlink="http://www.w3.org/1999/xlink" version="1.1">
<metadata>
Created by FontForge 20170910 at Wed Apr 24 17:42:46 2019
 By Jimmy Wärting
</metadata>
<defs>
<font id="Tainacan" horiz-adv-x="1000" >
  <font-face 
    font-family="Tainacan Icons"
    font-weight="400"
    font-stretch="normal"
    units-per-em="1000"
    panose-1="0 0 0 0 0 0 0 0 0 0"
    ascent="750"
    descent="-250"
    bbox="42 -208 958 708"
    underline-thickness="50"
    underline-position="-125"
    stemh="83"
    stemv="83"
    unicode-range="U+000D-2421"
  />
<missing-glyph horiz-adv-x="500" 
 />
    <glyph glyph-name="repository" unicode="repository" 
d="M917 500v125h-834v-125h834zM166 416h667v-541h-667v541zM625 166v125h-250v-125h250z" />
    <glyph glyph-name="colection" unicode="collection" 
d="M417 584l83 -83h333c46 0 84 -38 84 -84v-416c0 -46 -38 -84 -84 -84h-666c-46 0 -84 38 -84 84l1 500c0 46 37 83 83 83h250z" />
    <glyph glyph-name="colections" unicode="collections" 
d="M542 585l83 -84h208c46 0 84 -37 84 -83v-250c0 -46 -38 -83 -84 -83h-499c-46 0 -84 37 -84 83l1 333c0 46 37 84 83 84h208zM750 1h-583v417h-84v-418c0 -46 37 -83 83 -83h584v84z" />
    <glyph glyph-name="items" unicode="items" 
d="M667 625v83h-500c-45 0 -83 -37 -83 -83v-583h83v583h500zM334 542h291l250 -250v-417c0 -45 -37 -83 -83 -83h-458c-46 0 -83 38 -83 83v583c0 46 37 84 83 84zM584 479v-229h229z" />
    <glyph glyph-name="metadata" unicode="metadata" 
d="M230 376c34 0 62 28 62 62c0 35 -28 63 -62 63c-35 0 -63 -28 -63 -63c0 -34 28 -62 63 -62zM434 560l292 -292c15 -15 24 -36 24 -59s-9 -44 -24 -59l-208 -208c-15 -15 -36 -25 -59 -25s-44 10 -59 25l-291 291c-16 16 -25 36 -25 59v209c0 46 37 83 83 83h209
c22 0 43 -9 58 -24zM865 209l-300 304l41 41l286 -286c16 -15 25 -36 25 -59s-9 -44 -24 -59l-224 -224l-42 42z" />
    <glyph glyph-name="taxonomies" unicode="taxonomies" 
d="M792 -167l83 83l-83 84h-292v-167h292zM458 583l-83 -83h-292v167h292zM875 208l-83 -83h-292v166h292zM417 166h-167v-208h167v-83h-250v541h83v-166h167v-84z" />
    <glyph glyph-name="terms" unicode="terms" 
d="M83 392c0 59 48 108 108 108h488c33 0 64 -15 85 -41l129 -141c32 -39 32 -96 0 -135l-129 -142c-21 -26 -52 -41 -85 -41h-488c-60 0 -108 49 -108 108v284z" />
    <glyph glyph-name="activities" unicode="activities" 
d="M831 290c0 -42 -8 -87 -21 -125h-91c16 38 29 79 29 125c0 162 -129 291 -291 291s-291 -129 -291 -291c0 -145 108 -270 250 -287v-83c-187 21 -333 179 -333 370c0 208 166 374 374 374s374 -166 374 -374zM582 -84v-83h-83v83h83zM582 82v-83h-83v83h83zM914 -84v-83
h-249v83h249zM914 82v-83h-249v83h249zM499 290v208h-83v-250l112 -83h137z" />
    <glyph glyph-name="filters" unicode="filters" 
d="M585 254h-2v-328c2 -13 -2 -26 -12 -35c-16 -16 -42 -16 -59 0l-83 84c-10 10 -14 22 -12 35v244h-2l-240 308c-14 17 -11 44 8 58c7 6 16 9 25 9h584v0c9 0 18 -3 25 -9c19 -14 22 -41 8 -58z" />
    <glyph glyph-name="importers" unicode="importers" 
d="M584 250l-167 -166v124h-332v84h332v124zM833 0c0 -45 -37 -83 -83 -83h-499c-46 0 -83 38 -83 83v125h83v-125h499v500h-499v-125h-83v125c0 45 37 83 83 83h499c46 0 83 -37 83 -83v-500z" />
    <glyph glyph-name="settings" unicode="settings" 
d="M748 218l69 -55c7 -5 9 -14 4 -22l-66 -115c-4 -7 -13 -10 -21 -7l-82 33c-18 -13 -36 -24 -57 -33l-12 -88c-1 -8 -8 -14 -16 -14h-134c-8 0 -15 6 -16 14l-13 88c-20 9 -38 20 -56 33l-83 -33c-7 -3 -16 0 -20 7l-67 115c-4 7 -2 17 4 22l71 55c-2 10 -3 21 -3 32
s1 22 3 32l-70 55c-7 5 -9 14 -4 22l66 115c4 7 13 10 21 7l82 -33c18 13 36 24 57 33l12 88c1 8 8 14 16 14h134c8 0 15 -6 16 -14l13 -88c20 -9 38 -20 56 -33l83 33c7 3 16 0 20 -7l67 -115c4 -7 2 -17 -4 -22l-71 -55c2 -10 3 -21 3 -32s-1 -22 -2 -32zM500 125
c69 0 125 56 125 125s-56 125 -125 125s-125 -56 -125 -125s56 -125 125 -125z" />
    <glyph glyph-name="uni21B8" unicode="home" 
d="M417 -125h-209v333h-125l417 375l417 -375h-125v-333h-209v250h-166v-250z" />
    <glyph glyph-name="tour" unicode="tour" 
d="M590 0h202v583h-584v-583h202l90 -90zM208 667h584c46 0 83 -38 83 -84v-583c0 -46 -37 -83 -83 -83h-167l-125 -125l-125 125h-167c-46 0 -83 37 -83 83v583c0 46 37 84 83 84zM458 42v83h84v-83h-84zM500 458c-46 0 -83 -37 -83 -83h-84c0 92 75 167 167 167
s167 -75 167 -167c0 -104 -125 -115 -125 -208h-84c0 135 125 125 125 208c0 46 -37 83 -83 83z" />
    <glyph glyph-name="processes" unicode="processes" 
d="M375 625l167 -167h-126v-291h-83v291h-125zM667 42h125l-167 -167l-167 167h126v291h83v-291z" />
    <glyph glyph-name="help" unicode="help" 
d="M458 0v83h84v-83h-84zM500 666c230 0 417 -186 417 -416s-187 -417 -417 -417s-417 187 -417 417s187 416 417 416zM500 -84c184 0 333 150 333 334c0 183 -149 333 -333 333s-333 -150 -333 -333c0 -184 149 -334 333 -334zM500 500c92 0 167 -75 167 -167
c0 -104 -125 -115 -125 -208h-84c0 135 125 125 125 208c0 46 -37 83 -83 83s-83 -37 -83 -83h-84c0 92 75 167 167 167z" />
    <glyph glyph-name="share" unicode="share" 
d="M750 76c67 0 122 -55 122 -122s-55 -121 -122 -121s-122 54 -122 121c0 9 2 19 4 27l-297 174c-22 -21 -52 -34 -85 -34c-69 0 -125 56 -125 125s56 125 125 125c33 0 63 -13 85 -34l294 172c-2 9 -4 19 -4 29c0 69 56 125 125 125s125 -56 125 -125s-56 -125 -125 -125
c-33 0 -62 13 -85 33l-294 -171c2 -9 4 -19 4 -29s-2 -20 -4 -29l297 -173c22 20 50 32 82 32z" />
    <glyph glyph-name="export" unicode="export" 
d="M792 76l166 166l-166 166v-124h-292v-84h292v-124zM84 -9v501c0 47 37 84 83 84h460c46 0 83 -38 83 -84v-125h-83v125h-460v-501h460v126h83v-126c0 -46 -37 -84 -83 -84h-460c-46 0 -83 38 -83 84z" />
    <glyph glyph-name="url" unicode="url" 
d="M162 251c0 -71 58 -129 130 -129h166v-79h-166c-116 0 -209 93 -209 208s93 209 209 209h166v-80h-166c-72 0 -130 -58 -130 -129zM333 209v84h334v-84h-334zM709 460c115 0 208 -94 208 -209s-93 -209 -208 -209h-167v80h167c71 0 129 58 129 129s-58 129 -129 129h-167
v80h167z" />
    <glyph glyph-name="see" unicode="see" 
d="M625 251c0 -69 -56 -125 -125 -125s-125 56 -125 125s56 125 125 125s125 -56 125 -125zM500 460c-216 0 -303 -150 -328 -209c25 -59 111 -208 328 -208c216 0 303 149 328 208c-25 59 -111 209 -328 209zM500 543c334 0 417 -292 417 -292s-83 -292 -417 -292
s-417 292 -417 292s83 292 417 292z" />
    <glyph glyph-name="search" unicode="search" 
d="M207 337c0 -113 92 -205 206 -205c113 0 205 92 205 205c0 114 -92 206 -205 206c-114 0 -206 -92 -206 -206zM125 337c0 159 129 288 288 288s288 -129 288 -288c0 -50 -13 -96 -35 -137l209 -209s-6 -110 -116 -116l-209 209c-41 -22 -87 -35 -137 -35
c-159 0 -288 129 -288 288z" />
    <glyph glyph-name="edit" unicode="edit" 
d="M83 7l512 512l174 -174l-512 -512h-174v174zM903 480l-84 -85l-174 174l85 84c18 19 47 19 65 0l108 -108c19 -18 19 -47 0 -65z" />
    <glyph glyph-name="uni2421" unicode="delete" 
d="M250 -42v500h500v-500c0 -46 -37 -83 -83 -83h-334c-45 0 -83 37 -83 83zM792 583v-83h-584v83h146l42 42h208l42 -42h146z" />
    <glyph glyph-name="deleteforever" unicode="deleteforever" 
d="M250 -42v500h500v-500c0 -46 -37 -83 -83 -83h-334c-45 0 -83 37 -83 83zM354 271l104 -104l-104 -105l42 -41l104 104l104 -104l42 42l-104 104l104 104l-42 42l-104 -105l-104 105zM646 583h146v-83h-584v83h146l42 42h208z" />
    <glyph glyph-name="undo" unicode="undo" 
d="M417 -42l-292 292l292 292v-167c291 -42 416 -250 458 -458c-104 146 -250 212 -458 212v-171z" />
    <glyph glyph-name="add" unicode="add" 
d="M500 666c230 0 417 -187 417 -416c0 -230 -187 -417 -417 -417s-416 187 -416 417c0 229 186 416 416 416zM750 187v125h-188v187h-124v-187h-188v-125h188v-187h124v187h188z" />
    <glyph glyph-name="public" unicode="public" 
d="M746 25c54 59 88 138 88 225c0 140 -87 260 -209 309v-17c0 -46 -37 -83 -83 -83h-84v-84c0 -23 -18 -42 -41 -42h-84v-83h250c23 0 42 -19 42 -42v-125h42c37 0 68 -24 79 -58zM458 -81v81c-46 0 -83 37 -83 83v42l-200 200c-5 -24 -9 -49 -9 -75
c0 -170 128 -310 292 -331zM500 667c230 0 417 -187 417 -417s-187 -417 -417 -417s-417 187 -417 417s187 417 417 417z" />
    <glyph glyph-name="private" unicode="private" 
d="M750 416c46 0 83 -37 83 -83v-417c0 -46 -37 -83 -83 -83h-500c-46 0 -83 38 -83 83v417c0 46 37 83 83 83h42v84c0 115 93 208 208 208s208 -93 208 -208v-84h42zM500 41c46 0 83 38 83 84s-37 83 -83 83s-83 -37 -83 -83s37 -84 83 -84zM625 416v84
c0 71 -54 125 -125 125s-125 -54 -125 -125v-84h250z" />
    <glyph glyph-name="draft" unicode="draft" 
d="M709 333v84h-417v-84h417zM709 167v83h-417v-83h417zM583 0v83h-291v-83h291zM500 584c-23 0 -42 -19 -42 -42s19 -42 42 -42s42 19 42 42s-19 42 -42 42zM792 584c46 0 83 -38 83 -84v-584c0 -46 -37 -83 -83 -83h-584c-46 0 -83 37 -83 83v584c0 46 37 84 83 84h174
c18 48 64 83 118 83s100 -35 118 -83h174z" />
    <glyph glyph-name="download" unicode="download" 
d="M208 -83v84h584v-84h-584zM792 376l-292 -292l-292 292h167v250h250v-250h167z" />
    <glyph glyph-name="upload" unicode="upload" 
d="M792 584v-84h-584v84h584zM208 125l292 292l292 -292h-167v-250h-250v250h-167z" />
    <glyph glyph-name="playfill" unicode="playfill" 
d="M500 667c230 0 417 -187 417 -417s-187 -417 -417 -417s-417 187 -417 417s187 417 417 417zM417 62l250 188l-250 188v-376z" />
    <glyph glyph-name="play" unicode="play" 
d="M417 62v376l250 -188zM500 667c229 0 417 -188 417 -417s-188 -417 -417 -417s-417 188 -417 417s188 417 417 417zM500 -84c182 0 334 152 334 334s-152 334 -334 334s-334 -152 -334 -334s152 -334 334 -334z" />
    <glyph glyph-name="pause" unicode="pause" 
d="M373 87l2 336l84 -1l-2 -336zM502 674c232 -1 419 -190 418 -422s-190 -419 -422 -418s-419 190 -418 422s190 419 422 418zM498 -82c186 -1 337 149 338 334c1 186 -149 337 -334 338c-186 1 -337 -149 -338 -334c-1 -186 149 -337 334 -338zM541 86l2 336l84 -1
l-2 -336z" />
    <glyph glyph-name="uni2418" unicode="cancel" 
d="M608 416l59 -59l-108 -108l108 -108l-59 -59l-108 108l-108 -108l-59 59l108 108l-108 108l59 59l108 -108zM500 665c231 0 417 -186 417 -416s-186 -416 -417 -416s-417 186 -417 416s186 416 417 416zM500 -84c184 0 334 149 334 333s-150 333 -334 333
s-334 -149 -334 -333s150 -333 334 -333z" />
    <glyph glyph-name="finish" unicode="finish" 
d="M691 434l59 -59l-333 -333l-209 208l59 59l150 -149zM500 667c230 0 417 -187 417 -417s-187 -417 -417 -417s-417 187 -417 417s187 417 417 417zM500 -84c184 0 334 150 334 334s-150 334 -334 334s-334 -150 -334 -334s150 -334 334 -334z" />
    <glyph glyph-name="processerror" unicode="processerror" 
d="M125 250c0 155 106 285 250 322v-87c-97 -34 -167 -126 -167 -235c0 -69 29 -131 74 -177l93 94v-250h-250l98 98c-60 60 -98 143 -98 235zM458 42v83h84v-83h-84zM875 583l-98 -98c60 -60 98 -143 98 -235c0 -155 -106 -285 -250 -322v87c97 34 167 126 167 235
c0 69 -29 131 -74 177l-93 -94v250h250zM458 208v250h84v-250h-84z" />
    <glyph glyph-name="updating" unicode="updating" 
d="M791 417l167 -167h-125c0 -184 -149 -333 -333 -333c-65 0 -126 19 -177 52l60 60c35 -18 75 -29 117 -29c138 0 250 112 250 250h-125zM250 250h125l-166 -167l-167 167h125c0 184 149 333 333 333c65 0 126 -19 177 -52l-60 -60c-35 18 -75 29 -117 29
c-138 0 -250 -112 -250 -250z" />
    <glyph glyph-name="approvedcircle" unicode="approvedcircle" 
d="M501 667c230 0 417 -187 417 -417s-187 -417 -417 -417s-417 187 -417 417s187 417 417 417zM418 42l375 375l-59 59l-316 -316l-150 149l-59 -59z" />
    <glyph glyph-name="approved" unicode="approved" 
d="M377 76l440 440l58 -59l-498 -498l-232 232l59 59z" />
    <glyph glyph-name="alertcircle" unicode="alertcircle" 
d="M500 667c230 0 417 -187 417 -417s-187 -417 -417 -417s-417 187 -417 417s187 417 417 417zM542 42v83h-84v-83h84zM542 208v251h-84v-251h84z" />
    <glyph glyph-name="alert" unicode="alert" 
d="M542 84v-84h-84v84h84zM458 500h84v-334h-84v334z" />
    <glyph glyph-name="repprovedcircle" unicode="repprovedcircle" 
d="M500 667c231 0 417 -186 417 -417s-186 -417 -417 -417s-417 186 -417 417s186 417 417 417zM709 100l-150 150l150 150l-59 59l-150 -150l-150 150l-59 -59l150 -150l-150 -150l59 -59l150 150l150 -150z" />
    <glyph glyph-name="repproved" unicode="repproved" 
d="M792 484l-233 -233l233 -233l-59 -59l-233 233l-233 -233l-59 59l233 233l-233 233l59 59l233 -233l233 233z" />
    <glyph glyph-name="arrowleft" unicode="arrowleft" 
d="M584 460v-418l-209 209z" />
    <glyph glyph-name="arrowright" unicode="arrowright" 
d="M417 42v418l208 -209z" />
    <glyph glyph-name="arrowup" unicode="arrowup" 
d="M708 167h-417l209 208z" />
    <glyph glyph-name="arrowdown" unicode="arrowdown" 
d="M291 334h418l-209 -209z" />
    <glyph glyph-name="next" unicode="next" 
d="M457 -83l-78 78l255 256l-255 256l78 78l334 -334z" />
    <glyph glyph-name="previous" unicode="previous" 
d="M547 585l78 -78l-255 -256l255 -256l-78 -78l-334 334z" />
    <glyph glyph-name="pointer" unicode="pointer" 
d="M125 168v166h458v209l292 -292l-292 -292v209h-458z" />
    <glyph glyph-name="video" unicode="video" 
d="M708 313l167 166v-458l-167 166v-145c0 -23 -18 -42 -41 -42h-500c-23 0 -42 19 -42 42v416c0 23 19 42 42 42h500c23 0 41 -19 41 -42v-145z" />
    <glyph glyph-name="uni202C" unicode="pdf" 
d="M542 604v-229h229zM250 667h333l251 -250v-501c0 -46 -38 -83 -84 -83h-500c-46 0 -84 38 -84 83v668c0 46 38 83 84 83zM455 232c17 -38 39 -69 64 -90l17 -13c-36 -7 -86 -19 -139 -39l-5 -2l21 44c19 36 33 69 42 100zM726 73c7 7 10 17 11 27c1 9 -1 17 -5 23
c-12 20 -43 29 -95 29l-54 -3l-36 24c-26 22 -50 60 -67 107l2 6c14 55 27 122 -1 150c-6 7 -16 10 -25 10h-10c-16 0 -29 -16 -33 -32c-15 -56 -6 -86 9 -136v-1c-10 -37 -24 -79 -45 -122l-40 -75l-37 -21c-50 -31 -74 -66 -79 -88c-1 -8 0 -15 3 -22l1 -3l20 -13l18 -4
c34 0 72 40 124 128l7 3c43 14 97 23 169 31c43 -21 93 -31 125 -31c18 0 30 5 38 13zM709 102l3 -4c0 -4 -1 -5 -4 -6h-1h-8c-19 0 -49 7 -79 21c3 4 5 4 9 4c59 0 75 -10 80 -15zM306 29l20 13c-27 -50 -52 -78 -70 -84c2 16 20 43 50 71zM454 331l-2 -1
c-10 37 -10 68 -3 85l3 5l6 -2c7 -10 8 -23 4 -46l-1 -6z" />
    <glyph glyph-name="text" unicode="text" 
d="M625 125v-83h-500v83h500zM625 458v-83h-500v83h500zM125 208v84h750v-84h-750zM125 -125v83h750v-83h-750zM125 625h750v-83h-750v83z" />
    <glyph glyph-name="audio" unicode="audio" 
d="M127 370h166l208 208v-666l-208 208h-166v250zM688 245c0 -74 -42 -137 -104 -167v335c62 -31 104 -94 104 -168zM584 610c167 -38 291 -187 291 -365s-124 -327 -291 -365v86c120 36 208 147 208 279s-88 243 -208 279v86z" />
    <glyph glyph-name="uni22B7" unicode="image" 
d="M875 -42c0 -46 -38 -83 -83 -83h-584c-45 0 -83 38 -83 83v584c0 46 38 83 83 83h584c46 0 83 -38 83 -83v-584zM354 188l-146 -188h584l-188 250l-146 -188z" />
    <glyph glyph-name="gallery" unicode="gallery" 
d="M917 83c0 -46 -38 -83 -83 -83h-501c-46 0 -83 37 -83 83v501c0 45 37 83 83 83h501c45 0 83 -38 83 -83v-501zM458 250l-125 -167h501l-167 209l-124 -155zM83 500h83v-584h584v-83h-584c-45 0 -83 38 -83 83v584z" />
    <glyph glyph-name="user" unicode="user" 
d="M500 185c118 0 354 -59 354 -177v-133h-708v133c0 118 236 177 354 177zM500 583c98 0 177 -79 177 -177s-79 -177 -177 -177s-177 79 -177 177s79 177 177 177zM500 101c-133 0 -270 -65 -270 -93v-49h540v49c0 28 -139 93 -270 93zM500 499c-51 0 -93 -42 -93 -93v0
c0 -51 42 -93 93 -93v0c51 0 93 42 93 93v0c0 51 -42 93 -93 93z" />
    <glyph glyph-name="notifications" unicode="notifications" 
d="M500 -167c-46 0 -83 38 -83 83h166c0 -45 -37 -83 -83 -83zM750 83l83 -83v-42h-666v42l83 83v208c0 128 69 235 188 263v28c0 35 27 63 62 63s62 -28 62 -63v-28c120 -28 188 -135 188 -263v-208zM667 41v250c0 103 -63 187 -167 187s-166 -84 -166 -187v-250h333z" />
    <glyph glyph-name="more" unicode="more" 
d="M792 293v-84h-250v-250h-84v250h-250v84h250v250h84v-250h250z" />
    <glyph glyph-name="menu" unicode="menu" 
d="M125 0v83h750v-83h-750zM125 208v84h750v-84h-750zM125 500h750v-83h-750v83z" />
    <glyph glyph-name="heartfill" unicode="heartfill" 
d="M560 -85l-60 -55l-60 55c-215 195 -357 324 -357 481c0 129 101 229 230 229c72 0 142 -34 187 -87c45 53 115 87 188 87c128 0 229 -100 229 -229c0 -157 -142 -286 -357 -481z" />
    <glyph glyph-name="uni22C6" unicode="star" 
d="M500 30l-257 -155l67 293l-227 197l300 26l117 276l117 -276l300 -26l-228 -197l69 -293z" />
    <glyph glyph-name="viewtable" unicode="viewtable" 
d="M249 376v125h-125v-125h125zM916 501v-125h-583v125h583zM249 293v-126h-125v126h125zM916 293v-126h-583v126h583zM249 84v-125h-125v125h125zM916 84v-125h-583v125h583z" />
    <glyph glyph-name="viewcards" unicode="viewcards" 
d="M334 292v333h-208v-333h208zM625 625v-333h-208v333h208zM917 625v-333h-208v333h208zM334 208v-333h-208v333h208zM625 208v-333h-208v333h208zM917 208v-333h-208v333h208z" />
    <glyph glyph-name="viewminiature" unicode="viewminiature" 
d="M167 417v166h167v-166h-167zM417 -83v167h166v-167h-166zM167 -83v167h167v-167h-167zM167 167v166h167v-166h-167zM417 167v166h166v-166h-166zM667 583h166v-166h-166v166zM417 417v166h166v-166h-166zM667 167v166h166v-166h-166zM667 -83v167h166v-167h-166z" />
    <glyph glyph-name="viewmasonry" unicode="viewmasonry" 
d="M459 167v499h-375v-499h375zM917 333v-500h-375v500h375zM459 83v-250h-375v250h375zM917 666v-250h-375v250h375z" />
    <glyph glyph-name="viewgallery" unicode="viewgallery" 
d="M917 84v334h-167v-334h167zM250 418v-334h-167v334h167zM667 543v-584h-334v584h334z" />
    <glyph glyph-name="sortasc" unicode="sortasc" 
d="M667 500v-83h-166v83h166zM792 250v-83h-291v83h291zM917 1v-84h-416v84h416zM418 458l-167 167l-166 -167h125v-541h83v541h125z" />
    <glyph glyph-name="sortdesc" unicode="sortdesc" 
d="M667 500v-84h-167v84h167zM792 250v-84h-292v84h292zM917 -1v-83h-417v83h417zM417 -1h-125v542h-84v-542h-125l167 -166z" />
    <glyph glyph-name="viewrecords" unicode="viewrecords" 
d="M333 -41v584h-208v-584h208zM625 543v-584h-208v584h208zM917 543v-584h-208v584h208z" />
    <glyph glyph-name="close" unicode="close" 
d="M792 484l-233 -233l233 -233l-59 -59l-233 233l-233 -233l-59 59l233 233l-233 233l59 59l233 -233l233 233z" />
    <glyph glyph-name="heartoutline" unicode="heartoutline" 
d="M504 -23c199 180 329 298 329 419c0 83 -62 146 -145 146c-65 0 -127 -42 -149 -99h-78c-22 57 -84 99 -148 99c-84 0 -146 -63 -146 -146c0 -121 131 -239 328 -419l5 -4zM688 625c128 0 229 -100 229 -229c0 -157 -142 -286 -357 -481l-60 -55l-60 55
c-215 195 -357 324 -357 481c0 129 101 229 230 229c72 0 142 -34 187 -87c45 53 115 87 188 87z" />
    <glyph glyph-name="wordpress" unicode="wordpress" 
d="M500 666c229 0 416 -187 416 -416s-187 -416 -416 -416s-416 187 -416 416s187 416 416 416zM126 250c0 -148 86 -276 211 -337l-179 489c-20 -46 -32 -98 -32 -152zM500 -124c44 0 85 7 124 21c-1 2 -2 3 -2 5l-115 315l-113 -326c34 -10 69 -15 106 -15zM552 425
l135 -402l37 125c16 52 28 89 28 121c0 46 -15 78 -30 103c-18 31 -37 57 -37 88c0 40 29 66 68 66c-67 61 -156 98 -253 98c-131 0 -246 -67 -313 -169h25c39 0 99 5 99 5c20 1 23 -29 3 -31c0 0 -21 -2 -43 -4l136 -405l82 246l-58 159c-21 2 -40 4 -40 4
c-20 1 -17 32 3 31c0 0 62 -5 98 -5c39 0 100 5 100 5c20 1 22 -29 2 -31c0 0 -20 -2 -42 -4zM828 429c2 -11 3 -24 3 -38c0 -38 -7 -81 -29 -134l-114 -330c111 65 186 185 186 323c0 65 -17 126 -46 179z" />
    <glyph glyph-name="drag" unicode="drag" 
d="M292 543c0 46 -37 83 -83 83c-47 0 -84 -37 -84 -83c0 -47 37 -84 84 -84c46 0 83 37 83 84zM500 626c46 0 83 -37 83 -83c0 -47 -37 -84 -83 -84c-47 0 -84 37 -84 84c0 46 37 83 84 83zM792 626c46 0 83 -37 83 -83c0 -47 -37 -84 -83 -84c-47 0 -84 37 -84 84
c0 46 37 83 84 83zM209 335c46 0 83 -38 83 -84s-37 -83 -83 -83c-47 0 -84 37 -84 83s37 84 84 84zM500 335c46 0 83 -38 83 -84s-37 -83 -83 -83c-47 0 -84 37 -84 83s37 84 84 84zM792 335c46 0 83 -38 83 -84s-37 -83 -83 -83c-47 0 -84 37 -84 83s37 84 84 84zM209 42
c46 0 83 -37 83 -84c0 -46 -37 -83 -83 -83c-47 0 -84 37 -84 83c0 47 37 84 84 84zM500 42c46 0 83 -37 83 -84c0 -46 -37 -83 -83 -83c-47 0 -84 37 -84 83c0 47 37 84 84 84zM792 42c46 0 83 -37 83 -84c0 -46 -37 -83 -83 -83c-47 0 -84 37 -84 83c0 47 37 84 84 84z
" />
    <glyph glyph-name="addcollection" unicode="addcollection" 
d="M620 -22c-6 19 -9 39 -10 60h-467v418h-60v-418c0 -33 27 -60 60 -60h477zM740 516c33 0 60 -27 60 -60v-227c-84 0 -156 -55 -180 -132h-358c-33 0 -59 27 -59 60v359c0 33 26 59 59 59h180l59 -59h239zM917 39c0 65 -52 117 -117 117c-64 0 -117 -52 -117 -117
c0 -64 53 -117 117 -117c65 0 117 53 117 117zM870 57v-35h-52v-53h-35v53h-53v35h53v52h35v-52h52z" />
    <glyph glyph-name="stop" unicode="stop" 
d="M500 667c230 0 417 -187 417 -417s-187 -417 -417 -417s-417 187 -417 417s187 417 417 417zM500 -83c184 0 333 149 333 333s-149 333 -333 333s-333 -149 -333 -333s149 -333 333 -333zM667 83v334h-334v-334h334z" />
    <glyph glyph-name="embed" unicode="embed" 
d="M333 0l59 58l-192 192l192 192l-59 58l-250 -250zM667 0l-59 58l192 192l-192 192l59 58l250 -250z" />
    <glyph glyph-name="nextlevel" unicode="nextlevel" 
d="M543 374l250 -249l-250 -250l-59 59l149 149h-465v499h84v-416h381l-149 149z" />
    <glyph glyph-name="showmore" unicode="showmore" 
d="M165 293l78 78l256 -255l256 255l78 -78l-334 -334z" />
    <glyph glyph-name="pausefill" unicode="pausefill" 
d="M908 353c8 -32 12 -66 12 -100c0 -232 -188 -420 -420 -420s-420 188 -420 420c0 34 4 67 12 98v3c46 183 213 319 410 318c195 -1 359 -135 405 -315c0 -1 1 -3 1 -4zM625 83l2 336l-84 1l-2 -336zM457 84l2 336l-84 1l-2 -336z" />
    <glyph glyph-name="attachments" unicode="attachments" 
d="M83 229c0 127 103 229 229 229h438c92 0 167 -74 167 -166c0 -93 -75 -167 -167 -167h-354c-58 0 -104 46 -104 104s46 104 104 104h313v-83h-317c-23 0 -23 -42 0 -42h358c46 0 84 38 84 84c0 45 -38 83 -84 83h-438c-80 0 -146 -66 -146 -146s66 -146 146 -146h397v-83
h-397c-126 0 -229 102 -229 229z" />
    <glyph glyph-name="openurl" unicode="openurl" 
d="M792 -42v292h83v-292c0 -46 -37 -83 -83 -83h-584c-46 0 -83 37 -83 83v584c0 45 37 83 83 83h292v-83h-292v-584h584zM583 625h292v-292h-83v150l-410 -410l-59 59l410 410h-150v83z" />
    <glyph glyph-name="waiting" unicode="waiting" 
d="M500 667c230 0 417 -187 417 -417s-187 -417 -417 -417c-231 0 -417 187 -417 417s186 417 417 417zM500 -84c184 0 334 150 334 334s-150 334 -334 334s-334 -150 -334 -334s150 -334 334 -334zM521 458v-218l188 -112l-32 -51l-219 131v250h63z" />
    <glyph glyph-name="twitter" unicode="twitter" 
d="M936 500c-24 -36 -54 -68 -89 -93v-23c0 -237 -180 -509 -509 -509c-101 0 -195 30 -274 80c14 -1 28 -2 43 -2c84 0 161 28 222 77c-79 1 -144 53 -167 124c11 -2 22 -4 33 -4c17 0 32 2 47 7c-81 16 -143 88 -143 175c24 -11 52 -19 81 -19c-48 31 -79 86 -79 148
c0 32 9 63 24 89c88 -107 220 -179 368 -186c-3 13 -4 26 -4 41c0 98 80 178 178 178c52 0 98 -20 131 -56c41 8 79 23 114 43c-14 -42 -42 -77 -79 -99c36 5 71 14 103 29z" />
    <glyph glyph-name="facebook" unicode="facebook" 
d="M582 668h125v-167h-83c-29 0 -42 -34 -42 -62v-105h125v-166h-125v-334h-166v334h-125v166h125v167c0 92 74 167 166 167z" />
    <glyph glyph-name=".notdef" horiz-adv-x="500" 
 />
    <glyph glyph-name="uni0000" horiz-adv-x="0" 
 />
    <glyph glyph-name="uni0000" horiz-adv-x="0" 
 />
    <glyph glyph-name="uni000D" unicode="&#xd;" horiz-adv-x="250" 
 />
    <glyph glyph-name="space" unicode=" " horiz-adv-x="250" 
 />
    <glyph glyph-name="r" unicode="r" horiz-adv-x="308" 
 />
    <glyph glyph-name="e" unicode="e" horiz-adv-x="512" 
 />
    <glyph glyph-name="p" unicode="p" horiz-adv-x="549" 
 />
    <glyph glyph-name="o" unicode="o" horiz-adv-x="531" 
 />
    <glyph glyph-name="s" unicode="s" horiz-adv-x="465" 
 />
    <glyph glyph-name="i" unicode="i" horiz-adv-x="204" 
 />
    <glyph glyph-name="t" unicode="t" horiz-adv-x="301" 
 />
    <glyph glyph-name="y" unicode="y" horiz-adv-x="486" 
 />
    <glyph glyph-name="c" unicode="c" horiz-adv-x="501" 
 />
    <glyph glyph-name="l" unicode="l" horiz-adv-x="204" 
 />
    <glyph glyph-name="n" unicode="n" horiz-adv-x="527" 
 />
    <glyph glyph-name="question" unicode="?" 
d="M460 0v81h81v-81h-81zM514 540c144 -6 207 -152 121 -261c-22 -27 -58 -45 -76 -67c-18 -23 -18 -50 -18 -77h-81c0 45 0 83 18 110s54 43 76 61c66 60 49 146 -40 153c-45 0 -81 -36 -81 -81h-81c0 90 72 162 162 162z" />
    <glyph glyph-name="m" unicode="m" horiz-adv-x="803" 
 />
    <glyph glyph-name="a" unicode="a" horiz-adv-x="502" 
 />
    <glyph glyph-name="d" unicode="d" horiz-adv-x="554" 
 />
    <glyph glyph-name="x" unicode="x" horiz-adv-x="469" 
 />
    <glyph glyph-name="v" unicode="v" horiz-adv-x="483" 
 />
    <glyph glyph-name="f" unicode="f" horiz-adv-x="304" 
 />
    <glyph glyph-name="w" unicode="w" horiz-adv-x="715" 
 />
    <glyph glyph-name="u" unicode="u" horiz-adv-x="527" 
 />
    <glyph glyph-name="g" unicode="g" horiz-adv-x="549" 
 />
    <glyph glyph-name="h" unicode="h" horiz-adv-x="539" 
 />
    <glyph glyph-name="b" unicode="b" horiz-adv-x="554" 
 />
    <glyph glyph-name="k" unicode="k" horiz-adv-x="534" 
 />
  </font>
</defs>
</svg>
